inDegrees=yes
name=ik_S50_A01_T03
DataType=double
version=3
OpenSimVersion=4.3-2021-08-27-4bc7ad9
endheader
time	pelvis_tilt	pelvis_list	pelvis_rotation	pelvis_tx	pelvis_ty	pelvis_tz	hip_flexion_r	hip_adduction_r	hip_rotation_r	knee_angle_r	knee_angle_r_beta	ankle_angle_r	subtalar_angle_r	mtp_angle_r	hip_flexion_l	hip_adduction_l	hip_rotation_l	knee_angle_l	knee_angle_l_beta	ankle_angle_l	subtalar_angle_l	mtp_angle_l	lumbar_extension	lumbar_bending	lumbar_rotation	arm_flex_r	arm_add_r	arm_rot_r	elbow_flex_r	pro_sup_r	wrist_flex_r	wrist_dev_r	arm_flex_l	arm_add_l	arm_rot_l	elbow_flex_l	pro_sup_l	wrist_flex_l	wrist_dev_l
28.81999999999947	-0.6194962371432058	-9.430012280189748	-85.20611335336616	0	0.9399999999999999	0	12.33291886761476	0.6809942545349119	-4.777098868481928	12.58176591440566	0.2195932409215738	0	0	0	-8.514875556843396	-2.649509607205148	-6.798461636004939	31.59008421916423	0.5513509806067177	0	0	0	0	0	0	43.84695899558724	-43.84695899558724	4.991183559061492	84.87658750581096	85.00881671487271	0	0	43.84695899558724	-43.84695899558724	4.991183559061492	84.87658750581096	85.00881671487114	0	0
28.83999999999947	-1.021128286477637	-9.46162042159864	-84.65032136065892	0	0.9399999999999999	0	11.22494027699341	1.380789034068155	-5.413385328758728	12.70390857319661	0.2217250324746159	0	0	0	-5.853297727578934	-3.489207309787904	-5.778022688168583	37.04526829997716	0.6465619041192838	0	0	0	0	0	0	43.866086128902	-43.866086128902	4.991427734604814	84.88000552477061	85.00857253933765	0	0	43.866086128902	-43.866086128902	4.991427734604814	84.88000552477061	85.00857253933616	0	0
28.85999999999947	-1.281389147144922	-9.437246090070264	-84.33184576123197	0	0.9399999999999999	0	10.01750927116939	2.295185781276671	-6.179171409487637	12.41119207115486	0.2166161657390666	0	0	0	-3.205451647558134	-3.912605631628568	-4.273566880161578	42.28763831222242	0.7380585214407791	0	0	0	0	0	0	43.87798607806846	-43.87798607806846	4.991580987983268	84.88215079688132	85.00841928596438	0	0	43.87798607806846	-43.87798607806846	4.991580987983268	84.88215079688132	85.00841928596296	0	0
28.87999999999947	-1.952664906968392	-9.39693623186486	-83.75122080991747	0	0.9399999999999999	0	9.012590659100157	2.588556150059229	-7.028337670216469	12.31548358379742	0.214945737512576	0	0	0	-1.478602511463324	-5.154490598381916	-3.572512829428914	46.22649469961105	0.8068045341639198	0	0	0	0	0	0	43.87846794388857	-43.87846794388857	4.991588208156151	84.88225186640993	85.00841206579183	0	0	43.87846794388857	-43.87846794388857	4.991588208156151	84.88225186640993	85.00841206579041	0	0
28.89999999999947	-2.675461815914436	-9.408912384789151	-83.41457130227084	0	0.9399999999999999	0	9.088035217927375	3.230318116564162	-7.667980421119923	12.81321026000602	0.2236327067874238	0	0	0	0.08835801935359056	-5.981779811890685	-3.953293671675059	48.98548174929375	0.8549579422007675	0	0	0	0	0	0	43.87906506044784	-43.87906506044784	4.991597217889455	84.88237798659189	85.00840305605888	0	0	43.87906506044784	-43.87906506044784	4.991597217889455	84.88237798659189	85.00840305605746	0	0
28.91999999999947	-3.141342233152799	-9.500589671375248	-83.32735998866599	0	0.9399999999999999	0	8.364863422488677	3.697852809394271	-7.276135000810122	13.41365984140787	0.2341125289751078	0	0	0	1.552869927194944	-5.710831299994017	-4.911924036576535	50.2956647222784	0.8778249488829175	0	0	0	0	0	0	43.88282433951154	-43.88282433951154	4.991645966061579	84.88306037349224	85.00835430788841	0	0	43.88282433951154	-43.88282433951154	4.991645966061579	84.88306037349224	85.00835430788699	0	0
28.93999999999947	-3.124577270862598	-9.234044323262152	-83.54158424908961	0	0.9399999999999999	0	8.122572478621523	4.049415324806802	-5.859475819005802	13.47124194996104	0.2351175263596013	0	0	0	3.25158122448281	-5.694365838841378	-6.990872952939374	51.98945149170228	0.9073871048360821	0	0	0	0	0	0	43.88545558407318	-43.88545558407318	4.991680999985215	84.88355078559461	85.00831927396602	0	0	43.88545558407318	-43.88545558407318	4.991680999985215	84.88355078559461	85.00831927396456	0	0
28.95999999999947	-3.12267221415258	-9.231304481988724	-83.53302417941879	0	0.9399999999999999	0	7.208121290825748	4.164276988885296	-5.100993235653716	12.81965146448127	0.2237451270133111	0	0	0	4.627085850410245	-5.831590544786105	-8.753941379406832	52.92102564370868	0.923646141015068	0	0	0	0	0	0	43.88712633413477	-43.88712633413477	4.991703317157686	84.88386318598999	85.00829695679431	0	0	43.88712633413477	-43.88712633413477	4.991703317157686	84.88386318598999	85.00829695679285	0	0
28.97999999999947	-2.429033619181078	-9.364452660415703	-83.75392046796696	0	0.9399999999999999	0	5.948017617355083	3.969821943202375	-4.258706218870268	12.47530095057512	0.2177350767647143	0	0	0	5.807041019665809	-4.926039234846503	-10.11885881844509	53.07106848345246	0.9262648825876392	0	0	0	0	0	0	43.8889766157129	-43.8889766157129	4.991727257263257	84.88419830448434	85.00827301668957	0	0	43.8889766157129	-43.8889766157129	4.991727257263257	84.88419830448434	85.00827301668811	0	0
28.99999999999947	-2.13464141219687	-9.464859125439238	-83.79949513617045	0	0.9399999999999999	0	4.598134388385676	3.836199309647796	-4.535173307313998	11.94255217018773	0.2084368564609701	0	0	0	5.696044120614298	-4.662668526696295	-10.22972225013695	53.14666826382322	0.9275843476688934	0	0	0	0	0	0	43.88925720057389	-43.88925720057389	4.991731463736673	84.88425718759936	85.00826881021631	0	0	43.88925720057389	-43.88925720057389	4.991731463736673	84.88425718759936	85.00826881021484	0	0
